<?xml version="1.0" encoding="UTF-8" standalone="no"?>
<svg viewBox="0 0 29.26 29.26" y="0px" x="0px" version="1.1">
<g>
	<path
   d="M 3.2714844 12.164062 C 3.0504844 12.547062 2.921875 12.944422 2.921875 13.357422 L 2.921875 16.919922 C 2.921875 19.670922 8.1639531 21.902344 14.626953 21.902344 C 21.093953 21.902344 26.337891 19.670922 26.337891 16.919922 L 26.337891 13.357422 C 26.337891 12.944422 26.207375 12.547062 25.984375 12.164062 C 25.170706 13.571962 22.944745 14.736211 19.992188 15.388672 C 19.990472 16.830619 19.968304 18.235467 19.923828 18.3125 C 19.831308 18.472746 14.767068 21.396484 14.582031 21.396484 C 14.396995 21.396484 9.3327528 18.472746 9.2402344 18.3125 C 9.1955638 18.235128 9.175362 16.819813 9.1738281 15.371094 C 6.2660228 14.715075 4.0769893 13.558477 3.2714844 12.164062 z "
   />
	<path
   d="M14.627,23.31c-5.494,0-10.098-1.616-11.355-3.788c-0.221,0.381-0.35,0.779-0.35,1.191v3.564   c0,2.752,5.242,4.983,11.705,4.983c6.467,0,11.711-2.23,11.711-4.983v-3.564c0-0.412-0.131-0.81-0.354-1.19   C24.727,21.694,20.127,23.31,14.627,23.31z"
   />
	<path
   d="M 3.2402344 5.0429688 C 3.0392344 5.4089688 2.921875 5.7905937 2.921875 6.1835938 L 2.921875 9.7441406 C 2.921875 11.658469 5.4621005 13.319742 9.1816406 14.154297 C 9.1905174 13.111949 9.205954 12.203907 9.2402344 12.144531 C 9.3327524 11.984284 14.396995 9.0605469 14.582031 9.0605469 C 14.767068 9.0605469 19.83131 11.984284 19.923828 12.144531 C 19.958305 12.204246 19.975593 13.121262 19.984375 14.171875 C 23.754868 13.344294 26.337891 11.674559 26.337891 9.7441406 L 26.337891 6.1835938 C 26.337891 5.7905938 26.218578 5.4099687 26.017578 5.0429688 C 25.787578 7.0589688 20.785953 8.671875 14.626953 8.671875 C 8.4709531 8.671875 3.4692344 7.0579688 3.2402344 5.0429688 z "
   />
	<path
   d="M14.627,7.541c6.303,0,11.41-1.687,11.41-3.771c0-2.082-5.107-3.77-11.41-3.77   C8.328,0.001,3.219,1.689,3.219,3.771C3.219,5.854,8.328,7.541,14.627,7.541z"
   />
</g>
</svg>
