<?xml version="1.0" encoding="UTF-8" standalone="no"?>
<svg
   viewBox="0 0 29.26 29.26"
   y="0px"
   x="0px"
   version="1.1">
<g style="fill:#ffffff">
	<path
   d="M14.627,15.954c-5.494,0-10.098-1.614-11.355-3.79c-0.221,0.383-0.35,0.781-0.35,1.194v3.561   c0,2.751,5.242,4.983,11.705,4.983c6.467,0,11.711-2.232,11.711-4.983v-3.561c0-0.413-0.131-0.811-0.354-1.194   C24.727,14.339,20.127,15.954,14.627,15.954z"
   style="fill:#ffffff" />
	<path
   d="M14.627,23.31c-5.494,0-10.098-1.616-11.355-3.788c-0.221,0.381-0.35,0.779-0.35,1.191v3.564   c0,2.752,5.242,4.983,11.705,4.983c6.467,0,11.711-2.23,11.711-4.983v-3.564c0-0.412-0.131-0.81-0.354-1.19   C24.727,21.694,20.127,23.31,14.627,23.31z"
   style="fill:#ffffff" />
	<path
   d="M26.018,5.042c-0.23,2.016-5.232,3.629-11.391,3.629c-6.156,0-11.158-1.613-11.387-3.628   C3.039,5.409,2.922,5.791,2.922,6.184v3.561c0,2.752,5.242,4.983,11.705,4.983c6.467,0,11.711-2.23,11.711-4.983V6.184   C26.338,5.791,26.219,5.409,26.018,5.042z"
   style="fill:#ffffff" />
	<path
   d="M14.627,7.541c6.303,0,11.41-1.687,11.41-3.771c0-2.082-5.107-3.77-11.41-3.77   C8.328,0.001,3.219,1.689,3.219,3.771C3.219,5.854,8.328,7.541,14.627,7.541z"
   style="fill:#ffffff" />
</g>
<path
   d="m 19.923868,18.313171 c -0.09252,0.160246 -5.156515,3.083946 -5.341552,3.083946 -0.185036,0 -5.2490332,-2.9237 -5.3415516,-3.083946 -0.092518,-0.160247 -0.092518,-6.007647 0,-6.167893 0.092518,-0.160247 5.1565156,-3.0839467 5.3415516,-3.0839467 0.185037,0 5.249034,2.9236997 5.341552,3.0839467 0.09252,0.160246 0.09252,6.007646 0,6.167893 z"
   style="fill:#ffffff;stroke:#fa8100;stroke-width:0.69061;stroke-miterlimit:4;" />
</svg>
