<?xml version="1.0" standalone="no"?>
<!DOCTYPE svg PUBLIC "-//W3C//DTD SVG 20010904//EN"
 "http://www.w3.org/TR/2001/REC-SVG-20010904/DTD/svg10.dtd">
<svg version="1.0" xmlns="http://www.w3.org/2000/svg"
 width="700.000000pt" height="700.000000pt" viewBox="0 0 700.000000 700.000000"
 preserveAspectRatio="xMidYMid meet">
<metadata>
Created by potrace 1.11, written by Peter Selinger 2001-2013
</metadata>
<g transform="translate(0.000000,700.000000) scale(0.100000,-0.100000)"
fill="#000000" stroke="none">
<path d="M3158 6995 c-1 -1 -61 -6 -133 -9 -71 -4 -148 -9 -170 -11 -22 -2
-71 -7 -110 -10 -38 -3 -81 -7 -95 -9 -14 -3 -50 -7 -80 -11 -83 -8 -242 -31
-345 -50 -16 -3 -43 -7 -60 -10 -16 -3 -39 -7 -50 -9 -110 -23 -183 -39 -250
-56 -44 -12 -98 -25 -120 -31 -77 -19 -261 -81 -368 -125 -295 -120 -492 -266
-568 -419 -30 -62 -34 -78 -33 -150 0 -67 5 -90 28 -139 69 -142 266 -293 529
-405 199 -85 535 -185 752 -225 171 -32 418 -69 535 -81 36 -4 73 -9 82 -10
10 -2 61 -7 115 -10 54 -4 114 -8 133 -10 70 -8 399 -19 545 -18 169 0 555 12
564 17 3 2 51 7 106 11 100 6 114 8 215 19 69 8 265 35 305 41 472 80 825 183
1099 322 367 185 516 414 410 632 -33 67 -44 81 -116 152 -166 165 -496 316
-928 424 -161 40 -376 84 -493 100 -27 4 -56 8 -65 9 -10 2 -44 7 -77 11 -32
4 -67 8 -77 10 -9 2 -48 7 -85 10 -37 4 -79 8 -93 10 -14 2 -72 7 -130 11 -58
3 -123 8 -145 11 -47 5 -822 13 -827 8z"/>
<path d="M748 5734 c-46 -103 -48 -136 -48 -647 0 -403 3 -493 15 -542 70
-270 336 -512 777 -706 127 -56 423 -157 540 -185 l77 -17 3 -148 3 -148 -25
5 c-53 12 -246 66 -265 74 -11 5 -54 20 -95 34 -140 46 -299 116 -470 207
-155 83 -374 270 -448 383 l-32 49 -26 -58 c-53 -121 -53 -121 -51 -680 l2
-520 24 -60 c25 -61 81 -160 116 -204 29 -37 140 -145 176 -172 17 -13 43 -33
57 -45 116 -89 363 -216 577 -297 114 -43 329 -110 405 -127 19 -4 78 -18 130
-30 52 -12 105 -24 118 -26 12 -2 34 -6 50 -10 15 -3 41 -7 57 -10 165 -28
207 -34 255 -40 30 -3 66 -8 80 -10 14 -2 52 -7 85 -10 33 -3 74 -7 90 -9 220
-26 970 -26 1136 0 13 2 58 6 99 10 41 3 122 13 180 21 983 135 1709 481 1908
907 51 109 53 141 50 686 l-3 506 -27 66 c-14 36 -32 75 -39 87 -13 20 -14 19
-45 -27 -154 -228 -492 -443 -934 -594 -122 -42 -347 -107 -370 -107 -13 0
-15 20 -15 139 0 137 3 153 28 157 40 6 191 49 307 87 612 200 1004 497 1085
824 14 53 16 137 13 575 -4 556 -2 532 -60 642 l-15 29 -7 -39 c-17 -88 -130
-231 -238 -301 -24 -15 -46 -31 -49 -35 -6 -9 -256 -136 -314 -160 -173 -72
-546 -176 -760 -213 -28 -5 -47 -8 -105 -20 -14 -2 -38 -7 -55 -9 -94 -14
-185 -27 -220 -30 -44 -4 -134 -15 -180 -22 -16 -2 -68 -6 -115 -9 -47 -3 -98
-8 -115 -10 -158 -22 -860 -22 -1135 0 -19 1 -74 5 -122 9 -47 4 -94 8 -105
10 -10 2 -49 7 -88 10 -38 4 -79 9 -90 11 -11 2 -40 7 -65 10 -25 3 -54 7 -66
9 -12 2 -45 7 -75 11 -250 32 -698 149 -939 245 -321 128 -550 316 -594 487
l-12 46 -26 -59z"/>
<path d="M754 2275 c-53 -121 -53 -121 -51 -680 l2 -520 27 -68 c109 -271 372
-480 863 -688 91 -39 428 -145 517 -163 13 -3 79 -17 148 -31 69 -15 134 -29
145 -31 11 -2 38 -7 60 -9 22 -3 65 -10 95 -15 30 -5 80 -12 110 -16 30 -3 66
-7 80 -10 14 -2 50 -6 80 -9 30 -4 73 -8 95 -10 253 -27 880 -27 1155 1 19 2
58 5 85 8 110 11 333 44 450 66 28 5 66 12 85 15 259 43 692 185 934 307 344
173 560 377 638 603 l27 80 -2 525 -2 525 -27 66 c-14 36 -32 75 -39 87 -13
20 -14 19 -45 -27 -205 -304 -720 -572 -1385 -720 -75 -17 -152 -33 -170 -36
-19 -3 -70 -12 -114 -20 -76 -14 -113 -19 -207 -30 -24 -3 -56 -7 -73 -10 -16
-2 -66 -7 -110 -11 -44 -3 -91 -8 -105 -10 -105 -17 -630 -23 -880 -10 -235
13 -289 18 -600 61 -22 3 -262 48 -316 59 -55 11 -172 42 -294 77 -518 148
-943 393 -1109 640 l-41 62 -26 -58z"/>
</g>
</svg>
