<?xml version="1.0" standalone="no"?>
<!DOCTYPE svg PUBLIC "-//W3C//DTD SVG 20010904//EN"
 "http://www.w3.org/TR/2001/REC-SVG-20010904/DTD/svg10.dtd">
<svg version="1.0" xmlns="http://www.w3.org/2000/svg"
 width="700.000000pt" height="700.000000pt" viewBox="0 0 700.000000 700.000000"
 preserveAspectRatio="xMidYMid meet">
<metadata>
Created by potrace 1.11, written by Peter Selinger 2001-2013
</metadata>
<g transform="translate(0.000000,700.000000) scale(0.100000,-0.100000)"
fill="#000000" stroke="none">
<path d="M3158 6995 c-2 -1 -61 -6 -133 -9 -71 -4 -148 -9 -170 -11 -22 -2
-71 -7 -110 -10 -38 -3 -81 -7 -95 -9 -14 -3 -50 -7 -80 -11 -83 -8 -242 -31
-345 -50 -16 -3 -43 -7 -60 -10 -16 -3 -39 -7 -50 -9 -108 -23 -183 -39 -250
-56 -44 -11 -89 -22 -101 -25 -47 -11 -215 -65 -309 -100 -335 -125 -564 -285
-646 -450 -30 -62 -34 -78 -33 -150 0 -101 31 -169 117 -261 184 -197 544
-359 1077 -483 96 -23 103 -24 260 -51 137 -23 300 -46 390 -55 36 -4 73 -9
82 -10 10 -2 61 -7 115 -10 54 -4 114 -8 133 -10 72 -8 390 -18 540 -18 172 0
560 12 569 17 3 2 51 7 106 11 100 6 114 8 215 19 69 8 265 35 305 41 520 88
872 197 1185 366 104 57 222 155 279 233 83 113 100 241 47 350 -35 72 -45 86
-118 157 -168 167 -521 326 -958 432 -139 34 -361 78 -463 92 -27 4 -56 8 -65
9 -10 2 -44 7 -77 11 -32 4 -67 8 -77 10 -9 2 -48 7 -85 10 -37 4 -79 8 -93
10 -14 2 -72 7 -130 11 -58 3 -123 8 -145 11 -46 5 -822 13 -827 8z"/>
<path d="M748 5734 c-46 -103 -48 -136 -48 -647 0 -521 1 -537 56 -656 88
-193 322 -394 636 -545 144 -69 166 -78 318 -132 135 -48 169 -58 361 -108
l125 -33 3 186 c2 102 4 202 6 221 1 19 3 45 4 57 1 28 99 90 578 369 56 33
386 221 438 249 28 16 79 44 115 64 36 20 85 45 109 56 l43 19 77 -39 c136
-70 806 -453 997 -570 18 -11 63 -39 101 -61 111 -68 104 -48 110 -316 3 -128
6 -234 7 -235 4 -5 244 56 329 83 112 35 198 64 222 73 11 5 72 30 135 56 456
190 746 446 815 722 14 54 16 135 13 575 -4 556 -2 532 -60 642 l-15 29 -7
-36 c-36 -191 -322 -405 -731 -547 -172 -60 -467 -137 -630 -165 -16 -2 -41
-7 -55 -10 -39 -8 -131 -23 -170 -29 -19 -2 -55 -7 -80 -11 -25 -3 -61 -8 -80
-10 -19 -2 -55 -7 -80 -10 -77 -9 -142 -16 -210 -21 -36 -3 -83 -7 -105 -9
-243 -22 -934 -23 -1145 0 -19 2 -69 6 -111 9 -75 5 -156 13 -214 21 -16 2
-68 9 -115 15 -47 5 -94 12 -105 14 -11 2 -42 7 -70 11 -272 39 -651 137 -897
231 -348 133 -586 322 -632 501 l-12 46 -26 -59z"/>
<path d="M754 4035 c-54 -124 -54 -128 -52 -685 l3 -515 24 -60 c89 -222 291
-414 605 -577 55 -29 103 -53 106 -53 3 -1 21 -8 40 -17 202 -89 440 -167 690
-224 36 -8 74 -17 85 -20 11 -2 31 -6 45 -9 14 -2 50 -9 80 -15 30 -6 71 -13
90 -16 19 -3 60 -9 90 -14 30 -5 80 -12 110 -16 30 -3 66 -8 80 -10 14 -2 54
-7 90 -10 36 -3 75 -7 88 -9 157 -26 970 -26 1133 -1 13 3 58 7 99 11 309 26
740 113 1032 209 544 178 905 420 1047 702 60 120 62 143 59 703 l-3 506 -27
66 c-14 36 -32 75 -39 86 -12 20 -14 19 -39 -19 -201 -299 -714 -570 -1356
-718 l-52 -11 -2 -247 c-2 -215 -3 -280 -9 -424 -1 -35 -61 -76 -436 -295 -66
-39 -136 -80 -155 -91 -19 -12 -62 -36 -95 -55 -33 -19 -78 -44 -100 -57 -125
-71 -360 -201 -423 -234 l-72 -37 -82 41 c-101 52 -209 112 -473 262 -167 96
-682 403 -709 423 -22 17 -26 71 -30 459 l-2 258 -115 29 c-389 100 -692 225
-938 387 -124 82 -267 215 -325 301 l-36 53 -26 -57z"/>
<path d="M755 2275 c-55 -124 -55 -128 -53 -685 l3 -515 27 -68 c109 -271 372
-480 863 -688 91 -39 428 -145 517 -163 13 -3 79 -17 148 -31 158 -34 156 -34
205 -40 22 -3 65 -10 95 -15 30 -5 80 -12 110 -16 30 -3 66 -7 80 -10 14 -2
50 -6 80 -9 30 -4 73 -8 95 -10 253 -27 880 -27 1155 1 19 2 58 5 85 8 110 11
333 44 450 66 28 5 66 12 85 15 82 13 375 90 496 130 597 198 968 467 1076
780 l27 80 -2 525 -2 525 -27 66 c-14 36 -32 75 -39 87 -12 20 -14 19 -47 -31
-56 -84 -202 -219 -319 -297 -217 -144 -501 -267 -823 -359 -99 -28 -337 -84
-411 -96 -19 -3 -70 -12 -114 -20 -76 -14 -113 -19 -207 -30 -24 -3 -56 -7
-73 -10 -16 -2 -66 -7 -110 -11 -44 -3 -91 -8 -105 -10 -103 -17 -631 -23
-880 -10 -235 13 -289 18 -600 61 -22 3 -262 48 -316 59 -55 11 -172 42 -294
77 -520 148 -942 392 -1109 640 l-41 62 -25 -58z"/>
</g>
</svg>
